PathFileType	4	(X/Y/Z)	Apose_0-50.trc
DataRate	CameraRate	NumFrames	NumMarkers	Units	OrigDataRate	OrigDataStartFrame	OrigNumFrames
30	30	8	22	m	30	37	50
Frame#	Time	Hip			RHip			RKnee			RAnkle			RBigToe			RSmallToe			RHeel			LHip			LKnee			LAnkle			LBigToe			LSmallToe			LHeel			Neck			Head			Nose			RShoulder			RElbow			RWrist			LShoulder			LElbow			LWrist		
		X1	Y1	Z1	X2	Y2	Z2	X3	Y3	Z3	X4	Y4	Z4	X5	Y5	Z5	X6	Y6	Z6	X7	Y7	Z7	X8	Y8	Z8	X9	Y9	Z9	X10	Y10	Z10	X11	Y11	Z11	X12	Y12	Z12	X13	Y13	Z13	X14	Y14	Z14	X15	Y15	Z15	X16	Y16	Z16	X17	Y17	Z17	X18	Y18	Z18	X19	Y19	Z19	X20	Y20	Z20	X21	Y21	Z21	X22	Y22	Z22
38	1.2666666666666666	0.03652457730646293	0.8867543554667686	0.3619712382859239	0.03535707933259388	0.8878603629411294	0.4749234482312458	0.004194718144386746	0.505152296729904	0.49857408592062236	-0.006883024660540416	0.11872707398277604	0.5113050337978391	0.0	0.0	0.0	0.0	0.0	0.0	0.0	0.0	0.0	0.038031177202868624	0.8866661906538168	0.2488931556487078	0.036920920622604464	0.5034138493792704	0.22581167257348958	0.0033536415697065568	0.12294616909991146	0.20669005005798813	0.0	0.0	0.0	0.0	0.0	0.0	0.0	0.0	0.0	0.030606625669673714	1.478508593284844	0.3481939290639859	0.2807818733857167	1.74556147856777	0.3671441398585092	0.27135296893952493	1.634414124748864	0.35813867950183154	0.0351984132471363	1.4921495939507974	0.5424459591356496	0.0705650378523396	1.234426708305984	0.7129743347813082	0.14866221289745854	1.0313938939736782	0.886635788468393	0.017998237986977965	1.473294734451193	0.14604506054995178	0.02360950265584856	1.2224187360385725	-0.00025158084354115734	0.0819120041040932	1.0154310060101102	-0.14657515513903865
39	1.3	0.03682273396232376	0.8869812657941152	0.36291008737833735	0.03609968913223352	0.8882933662194018	0.47542336431225424	0.004164028157850695	0.5061732194098136	0.49854284114002356	-0.006397074290660265	0.11831282507274914	0.5121259511911063	0.0	0.0	0.0	0.0	0.0	0.0	0.0	0.0	0.0	0.03790330489818379	0.886703141098962	0.25025341538741663	0.03705716546949777	0.5037313982369976	0.2265051865244418	0.004218370811834884	0.12353796117673203	0.20687282466590798	0.0	0.0	0.0	0.0	0.0	0.0	0.0	0.0	0.0	0.03169934354187558	1.4780403208411954	0.3472961274302628	0.27534286647997774	1.7501985574114032	0.36706035424545785	0.273732977592007	1.6426748918117287	0.361846283861215	0.03609826444289097	1.4924888972330823	0.5420551762905259	0.06931957698258566	1.2351620783799315	0.7109427758682484	0.1490383916850155	1.0313630958185804	0.886515078906258	0.018732903304826104	1.4732082686264172	0.14492100572167005	0.023721188326585537	1.222526568230997	0.0002481678121128741	0.08146204616147278	1.0149999442049906	-0.14640695110855134
40	1.3333333333333333	0.037320796749600836	0.8871219437222359	0.3638907566925664	0.036975553453124116	0.8885422992374411	0.475991971328956	0.0045550564488017024	0.5066611502539597	0.4988897269463262	-0.00595962900086929	0.11793681719565319	0.5125978838348418	0.0	0.0	0.0	0.0	0.0	0.0	0.0	0.0	0.0	0.03802091256469267	0.8867415527506849	0.25163129531665346	0.03701612897975191	0.5037772551554893	0.22676396508294733	0.0048500175740736565	0.12424106336055044	0.20725710121498636	0.0	0.0	0.0	0.0	0.0	0.0	0.0	0.0	0.0	0.032297800801429966	1.4784273454288308	0.34665408687337784	0.26981414977299006	1.7548608821770744	0.36647401053449985	0.2740156151828463	1.6499716429968412	0.3636200847357862	0.03732625282885985	1.492889639936039	0.5416279149947139	0.06821615524873056	1.23569477674274	0.7086424508591208	0.1506961433816684	1.0308078634569542	0.8859195146730082	0.019426978926284054	1.4733117259825712	0.14391132698624373	0.023751857142985566	1.2225843232507418	0.0005134807333329477	0.08102569355949907	1.0144263571065464	-0.1462244231942549
41	1.3666666666666667	0.03813574444618523	0.8871556861643995	0.364830090952033	0.038021584363034905	0.8885561480398645	0.4766191654677436	0.005366670238879557	0.5066331624984037	0.4996427727923146	-0.005724488959699697	0.11774402624397816	0.5126421849351214	0.0	0.0	0.0	0.0	0.0	0.0	0.0	0.0	0.0	0.038588848347706414	0.886783967361334	0.25287943567458954	0.03714985984457376	0.5038125940690615	0.22673317835479587	0.0048828066892446466	0.12487320807065966	0.20781503573272836	0.0	0.0	0.0	0.0	0.0	0.0	0.0	0.0	0.0	0.03229312377915116	1.4795851789204462	0.346366877181296	0.26463308608455416	1.7593367055042468	0.3655058447737339	0.27280681704918863	1.6560880426827775	0.36403845162779835	0.03875433767179911	1.4932626446256019	0.5411848579084347	0.06795453600148707	1.2362081792908788	0.706596425609522	0.1537322601542957	1.0297202465148645	0.8848706437638105	0.01979542052885423	1.4736848105296128	0.14326329952866618	0.023718986094633125	1.2225078444691193	0.0005646126251414768	0.08076255517238748	1.0138336302944926	-0.14608448626151496
42	1.4	0.03923462844911921	0.8871151618751718	0.36564736750037224	0.039176277730662276	0.8883603039443958	0.4772908297425747	0.006325360795934168	0.5063110168898147	0.5006187448335563	-0.005579869641730906	0.11791786952237869	0.5123163268542485	0.0	0.0	0.0	0.0	0.0	0.0	0.0	0.0	0.0	0.039605176631891614	0.8868710514213898	0.2538551258340234	0.03761924829282075	0.5039433341517046	0.22657196693972953	0.004205846032344893	0.12528916164652804	0.20847078134517746	0.0	0.0	0.0	0.0	0.0	0.0	0.0	0.0	0.0	0.031818129269540064	1.4811304195153379	0.34643513748141463	0.260120169711294	1.7633997022533547	0.3642736455651259	0.2710267175920656	1.6610624179411413	0.3638035529173158	0.040230439326169404	1.4934821556020155	0.5408346624202545	0.06916717544100864	1.2367966164109676	0.7053834183910447	0.1574648689367318	1.0284177615390497	0.883685538804475	0.01972322498579972	1.4743087326488686	0.14312461369819837	0.023636905056468746	1.2223139936407397	0.0005227736536118629	0.08082843007711953	1.0133177090511734	-0.1460173036923407
43	1.4333333333333331	0.0404732815877102	0.8870683957978924	0.3662695707574601	0.04034737214280366	0.8880610077077937	0.47798866219712044	0.007012254542231073	0.5060229952930911	0.501419312763132	-0.005229855130738112	0.11860104126866411	0.5117693058115734	0.0	0.0	0.0	0.0	0.0	0.0	0.0	0.0	0.0	0.040875573953323134	0.8870383448484769	0.25442636937952745	0.03839474915371787	0.504046992260734	0.22639636107081426	0.003071307432935015	0.1252924280864885	0.20910769804415125	0.0	0.0	0.0	0.0	0.0	0.0	0.0	0.0	0.0	0.031232953011178805	1.4824249372327267	0.34678007373604197	0.2563127949482309	1.766857754664353	0.3627014233862546	0.26929273949753946	1.665015502334809	0.36331488626528813	0.04157135548106886	1.4934105263710808	0.5407489269870038	0.0719410116272399	1.2373259747689798	0.7053151312737951	0.16093722242326097	1.0272849426577222	0.8827826961571159	0.019300680783389573	1.4750184098126806	0.14349153453717117	0.0235651713107133	1.222049761156675	0.0004912604522871589	0.08132340281209641	1.0128570370630978	-0.1460069586757128
44	1.4666666666666666	0.04168159882511897	0.887079203194904	0.36664064146475456	0.0414633065989933	0.887815242415303	0.47865373265490685	0.007313520006177619	0.5059781024784116	0.50176239158997	-0.004578475785111915	0.11962977692830497	0.5111766444113608	0.0	0.0	0.0	0.0	0.0	0.0	0.0	0.0	0.0	0.042137284104447774	0.8872639950120333	0.2545279493199025	0.039307940335274176	0.5039372630222133	0.22628025422632758	0.0020000235847885493	0.12476178411303891	0.20961582759689054	0.0	0.0	0.0	0.0	0.0	0.0	0.0	0.0	0.0	0.030883796180709848	1.4828885243188838	0.3472765597195443	0.2529629464581801	1.769600921777554	0.36061280047879635	0.2676752135514982	1.668049444534959	0.3625308652922365	0.04258175766716901	1.4929825924486502	0.5410516996415967	0.07578904979766152	1.2375084333925037	0.7063087777748525	0.16353480390546277	1.0264940478364208	0.882380897432382	0.018706607490993996	1.475582561133053	0.14419040842144365	0.023562544521049833	1.2217160849892106	0.0004672232822311715	0.08219722818840076	1.0123269887724793	-0.14606271855227113
45	1.5	0.04273825218640516	0.8871153651007623	0.3667552115204255	0.042457102528479035	0.8876874521967678	0.4791818260714388	0.007732339798352654	0.5060469858319105	0.5017700898583132	-0.003791436577487428	0.12069352392532334	0.5107029807313619	0.0	0.0	0.0	0.0	0.0	0.0	0.0	0.0	0.0	0.04322409440224847	0.8874262753072644	0.25424148214415365	0.03997442305926673	0.5035726829651639	0.22624788601682846	0.0014768712677452906	0.12390575832573578	0.20993928434547482	0.0	0.0	0.0	0.0	0.0	0.0	0.0	0.0	0.0	0.030886549076219925	1.482328731047218	0.3477873115109248	0.249854041676516	1.7715635016658384	0.357987082187831	0.26580739909888357	1.670088125279235	0.3610439416789037	0.043115899001034616	1.4922543287928811	0.541698920074172	0.08006323978972234	1.2370679270404525	0.7080096166230991	0.16513775720019355	1.0260131380280917	0.8824179833753605	0.018085454910766505	1.4758444325168245	0.1449877263073065	0.02369536294894167	1.221288951408878	0.0003663664695349703	0.08325588112491591	1.0117166932816897	-0.14629564362847225
